<svg width="17" height="20" viewBox="0 0 17 20" fill="none" xmlns="http://www.w3.org/2000/svg">
<path d="M16.7857 4.11472C16.7219 4.06268 16.6455 4.02925 16.5645 4.01799C16.4836 4.00673 16.4011 4.01808 16.326 4.05081L9.01111 7.2716C8.69307 7.41251 8.29476 7.47949 7.88586 7.47949C7.31566 7.4818 6.72577 7.34706 6.31459 7.16381C6.18929 7.11014 6.06998 7.04303 5.95869 6.96361C5.98898 6.94821 6.02684 6.93128 6.06849 6.91434L12.7216 3.98536L13.7135 4.41655V3.15611C13.715 3.06622 13.6965 2.97715 13.6594 2.89556C13.6223 2.81396 13.5676 2.74194 13.4992 2.68488C13.4358 2.6329 13.3596 2.59949 13.2789 2.58823C13.1982 2.57697 13.116 2.58829 13.0411 2.62098L5.72622 5.84177C5.50056 5.93416 5.30671 6.04812 5.14315 6.21366C4.95374 6.40366 4.84618 6.66229 4.84404 6.93281C4.84404 6.94051 4.84631 6.9536 4.84631 6.9536V18.2953L4.8448 18.3107C4.8448 18.3138 4.84707 18.3153 4.84707 18.3184V18.3307H4.84858C4.86373 18.7272 5.06061 18.9798 5.2484 19.1584C5.83905 19.6882 6.83103 19.9846 7.88661 20C8.38639 20 8.89374 19.923 9.36322 19.7182L16.6804 16.4966C16.8735 16.4119 16.9999 16.2017 16.9999 15.9638V4.58594C17.0011 4.49611 16.9825 4.40715 16.9454 4.3256C16.9083 4.24406 16.8537 4.172 16.7857 4.11472V4.11472ZM12.1461 1.9588C12.1332 1.78941 12.0643 1.62771 11.9416 1.5307C11.8779 1.47866 11.8015 1.44522 11.7205 1.43397C11.6395 1.42271 11.5571 1.43405 11.482 1.46679L4.16707 4.68604C3.84903 4.82617 3.44997 4.89393 3.04182 4.89393C2.47162 4.89547 1.88173 4.76073 1.47055 4.5767C1.34512 4.52393 1.22577 4.45732 1.11465 4.37805C1.14494 4.36265 1.1828 4.34571 1.22445 4.32877L7.87828 1.3998L8.87026 1.83098V0.572082C8.87161 0.482142 8.85297 0.393054 8.81573 0.311462C8.7785 0.229869 8.72363 0.157879 8.65521 0.100859C8.59161 0.0488899 8.51531 0.0154881 8.43448 0.0042306C8.35364 -0.00702692 8.27132 0.00428382 8.19632 0.0369515L0.881423 3.25851C0.655766 3.35091 0.462671 3.46409 0.298351 3.63041C0.109225 3.82053 0.00193724 4.07914 0 4.34956C0 4.3588 0.00227154 4.37112 0.00227154 4.37112V15.749H0.00378627C0.018931 16.1455 0.215812 16.3981 0.403607 16.5767C0.994251 17.1064 1.98623 17.4021 3.04257 17.4175C3.32944 17.4158 3.61539 17.3843 3.89598 17.3236V6.95283C3.88841 6.41385 4.10043 5.89643 4.47299 5.52377C4.73111 5.26918 5.03778 5.07108 5.3741 4.94167L12.1461 1.9588V1.9588Z" fill="#6A6A6A" fill-opacity="0.8"/>
</svg>
