<svg width="24" height="16" viewBox="0 0 24 16" fill="none" xmlns="http://www.w3.org/2000/svg">
<path d="M4 3C4 2.44771 4.44772 2 5 2H21C21.5523 2 22 1.55228 22 1V1C22 0.447715 21.5523 0 21 0H4C2.9 0 2 0.9 2 2V12C2 12.5523 1.55228 13 1 13V13C0.447715 13 0 13.4477 0 14V15C0 15.5523 0.447715 16 1 16H13C13.5523 16 14 15.5523 14 15V14C14 13.4477 13.5523 13 13 13H5C4.44772 13 4 12.5523 4 12V3ZM23 4H17C16.45 4 16 4.45 16 5V15C16 15.55 16.45 16 17 16H23C23.55 16 24 15.55 24 15V5C24 4.45 23.55 4 23 4ZM22 12C22 12.5523 21.5523 13 21 13H19C18.4477 13 18 12.5523 18 12V7C18 6.44772 18.4477 6 19 6H21C21.5523 6 22 6.44772 22 7V12Z" fill="#6A6A6A"/>
</svg>
