<svg width="17" height="11" viewBox="0 0 17 11" fill="none" xmlns="http://www.w3.org/2000/svg">
<path d="M6.84722 4.92883C7.78576 4.4658 8.27569 3.76516 8.27569 2.67461C8.27569 0.523954 6.72326 0 4.93177 0H0V10.7959H5.07049C6.97118 10.7959 8.75677 9.85461 8.75677 7.66131C8.75677 6.30573 8.13403 5.30352 6.84722 4.92883V4.92883ZM2.29913 1.84298H4.4566C5.28594 1.84298 6.03264 2.08363 6.03264 3.07671C6.03264 3.99363 5.45121 4.36223 4.63073 4.36223H2.29913V1.84298V1.84298ZM4.75764 8.96206H2.29913V5.98892H4.80486C5.81719 5.98892 6.45764 6.42454 6.45764 7.53032C6.45764 8.62088 5.69323 8.96206 4.75764 8.96206V8.96206ZM15.3384 1.62974H11.0972V0.566602H15.3384V1.62974V1.62974ZM17 7.00028C17 4.68818 15.6896 2.7599 13.3137 2.7599C11.0057 2.7599 9.43854 4.55109 9.43854 6.8967C9.43854 9.33066 10.9231 11 13.3137 11C15.1229 11 16.2946 10.1592 16.8583 8.37109H15.0226C14.8248 9.03822 14.0102 9.39158 13.3786 9.39158C12.1597 9.39158 11.5193 8.65439 11.5193 7.40238H16.9823C16.9911 7.27444 17 7.13736 17 7.00028ZM11.5222 6.04985C11.5901 5.02326 12.2512 4.3805 13.2488 4.3805C14.2936 4.3805 14.8189 5.01412 14.9075 6.04985H11.5222Z" fill="#C4C4C4"/>
</svg>
