<svg width="19" height="19" viewBox="0 0 19 19" fill="none" xmlns="http://www.w3.org/2000/svg">
<path d="M17.7604 2.99994H15.4687L15.2123 2.45337C15.1172 2.25036 14.9709 2.07962 14.7899 1.96028C14.6089 1.84095 14.4003 1.77773 14.1875 1.77771H12.2675L11.2907 0.735766C10.9294 0.350765 10.3125 0.623474 10.3125 1.16775V6.89082L14.8958 8.63669V7.27773H16.0416C17.3074 7.27773 18.3333 6.18345 18.3333 4.83328V3.61105C18.3333 3.27341 18.0769 2.99994 17.7604 2.99994ZM13.75 4.83328C13.4334 4.83328 13.1771 4.5598 13.1771 4.22216C13.1771 3.88453 13.4334 3.61105 13.75 3.61105C14.0665 3.61105 14.3229 3.88453 14.3229 4.22216C14.3229 4.5598 14.0665 4.83328 13.75 4.83328ZM3.43747 7.88884C2.80583 7.88884 2.29164 7.34037 2.29164 6.66662C2.29164 5.99172 1.77852 5.44439 1.1458 5.44439C0.513088 5.44439 -3.05176e-05 5.99172 -3.05176e-05 6.66662C-3.05176e-05 8.2578 0.960679 9.60187 2.29164 10.1079V18.2778C2.29164 18.6154 2.54802 18.8889 2.86455 18.8889H5.15622C5.47275 18.8889 5.72914 18.6154 5.72914 18.2778V14H11.4583V18.2778C11.4583 18.6154 11.7147 18.8889 12.0312 18.8889H14.3229C14.6394 18.8889 14.8958 18.6154 14.8958 18.2778V9.93416L9.5265 7.88884H3.43747Z" fill="#ABABAB"/>
</svg>
