<svg width="12" height="13" viewBox="0 0 12 13" fill="none" xmlns="http://www.w3.org/2000/svg">
<path d="M4.30769 11.1452C1.23077 12.0726 1.23077 9.59958 0 9.29045L4.30769 11.1452ZM8.61539 13V10.6073C8.63847 10.3125 8.59882 10.0162 8.49909 9.73794C8.39935 9.45971 8.2418 9.20601 8.03692 8.99368C9.96923 8.77729 12 8.04156 12 4.66587C11.9998 3.80268 11.6693 2.97258 11.0769 2.3474C11.3575 1.5922 11.3376 0.757455 11.0215 0.0165651C11.0215 0.0165651 10.2954 -0.199826 8.61539 0.931588C7.20493 0.547539 5.71815 0.547539 4.30769 0.931588C2.62769 -0.199826 1.90154 0.0165651 1.90154 0.0165651C1.58546 0.757455 1.56563 1.5922 1.84615 2.3474C1.24931 2.97722 0.918476 3.81482 0.923077 4.68442C0.923077 8.03538 2.95385 8.77111 4.88615 9.01223C4.68369 9.22242 4.52755 9.47308 4.42788 9.74791C4.32822 10.0227 4.28727 10.3156 4.30769 10.6073V13" fill="#C4C4C4"/>
</svg>
