<svg width="16" height="13" viewBox="0 0 16 13" fill="none" xmlns="http://www.w3.org/2000/svg">
<path d="M1.54766 12.3641L1.54578 12.3622L0.638603 11.4444C0.452763 11.2563 0.455463 10.9539 0.636724 10.7725L0.638603 10.7706L4.50815 6.85554L4.85555 6.50406L4.50815 6.15258L0.638604 2.23755C0.452763 2.04953 0.455463 1.74709 0.636719 1.56566L0.636744 1.56568L0.640923 1.5614L1.54273 0.636828C1.72543 0.453012 2.0136 0.456084 2.18943 0.635892L2.18942 0.635897L2.1913 0.637798L7.65041 6.16107L7.6504 6.16108L7.65227 6.16295C7.83891 6.34979 7.83892 6.65226 7.65442 6.83893L2.19532 12.3622C2.01267 12.547 1.72379 12.5442 1.54766 12.3641ZM9.25275 0.637799L9.25276 0.637804L9.25463 0.635892C9.43076 0.455769 9.71964 0.453001 9.90229 0.637798L15.3614 6.16107C15.5483 6.35017 15.5428 6.6511 15.3652 6.827L15.3652 6.82698L15.3614 6.83081L9.90229 12.3541L9.90228 12.3541L9.90042 12.356C9.72428 12.5361 9.4354 12.5389 9.25275 12.3541L8.34558 11.4362L8.34369 11.4343C8.16244 11.2529 8.15974 10.9505 8.34558 10.7624L12.2151 6.84742L12.5625 6.49594L12.2151 6.14446L8.34558 2.22943L8.34369 2.22753C8.16244 2.0461 8.15974 1.74366 8.34558 1.55564L9.25275 0.637799Z" stroke="#ABABAB"/>
</svg>
