<svg width="47" height="36" viewBox="0 0 47 36" fill="none" xmlns="http://www.w3.org/2000/svg">
<path d="M22.8769 9.33934L7.83395 21.5429V34.7141C7.83395 35.0552 7.97149 35.3822 8.21631 35.6234C8.46113 35.8645 8.79318 36 9.13941 36L18.2825 35.9767C18.6276 35.975 18.958 35.8388 19.2014 35.5978C19.4448 35.3568 19.5814 35.0308 19.5814 34.6908V26.999C19.5814 26.658 19.719 26.3309 19.9638 26.0898C20.2086 25.8486 20.5406 25.7131 20.8869 25.7131H26.1087C26.4549 25.7131 26.787 25.8486 27.0318 26.0898C27.2766 26.3309 27.4141 26.658 27.4141 26.999V34.6852C27.4136 34.8544 27.447 35.022 27.5123 35.1785C27.5777 35.335 27.6738 35.4772 27.7951 35.597C27.9163 35.7169 28.0604 35.812 28.2191 35.8768C28.3777 35.9417 28.5478 35.9751 28.7196 35.9751L37.8594 36C38.2056 36 38.5377 35.8645 38.7825 35.6234C39.0273 35.3822 39.1649 35.0552 39.1649 34.7141V21.5341L24.1252 9.33934C23.9484 9.19897 23.7281 9.12241 23.501 9.12241C23.2739 9.12241 23.0537 9.19897 22.8769 9.33934ZM46.6386 17.6339L39.8176 12.0959V0.964393C39.8176 0.70862 39.7144 0.463323 39.5308 0.282464C39.3472 0.101606 39.0982 0 38.8385 0H34.2694C34.0097 0 33.7607 0.101606 33.5771 0.282464C33.3935 0.463323 33.2903 0.70862 33.2903 0.964393V6.79978L25.9855 0.880009C25.2845 0.311804 24.4048 0.00113585 23.497 0.00113585C22.5891 0.00113585 21.7095 0.311804 21.0084 0.880009L0.355327 17.6339C0.256184 17.7146 0.174159 17.8138 0.113938 17.9258C0.0537177 18.0377 0.016482 18.1603 0.00435871 18.2864C-0.00776456 18.4125 0.00546224 18.5398 0.0432834 18.6609C0.0811045 18.7819 0.142779 18.8945 0.224782 18.9921L2.30535 21.4835C2.38713 21.5814 2.48772 21.6625 2.60136 21.7221C2.715 21.7817 2.83946 21.8187 2.96762 21.8308C3.09577 21.843 3.22511 21.8302 3.34821 21.793C3.47132 21.7559 3.58579 21.6952 3.68505 21.6145L22.8769 6.04434C23.0537 5.90396 23.2739 5.8274 23.501 5.8274C23.7281 5.8274 23.9484 5.90396 24.1252 6.04434L43.3179 21.6145C43.417 21.6952 43.5312 21.756 43.6542 21.7932C43.7771 21.8305 43.9063 21.8435 44.0343 21.8316C44.1624 21.8196 44.2868 21.783 44.4005 21.7236C44.5141 21.6643 44.6148 21.5835 44.6967 21.4859L46.7773 18.9945C46.8592 18.8964 46.9206 18.7832 46.958 18.6616C46.9954 18.54 47.008 18.4123 46.9951 18.2858C46.9822 18.1594 46.9441 18.0367 46.8829 17.9248C46.8217 17.813 46.7387 17.7141 46.6386 17.6339Z" fill="#C4C4C4"/>
</svg>
