<svg width="18" height="15" viewBox="0 0 18 15" fill="none" xmlns="http://www.w3.org/2000/svg">
<path d="M12.3333 5.75C13.3942 5.75 14.4116 6.14509 15.1617 6.84835C15.9119 7.55161 16.3333 8.50544 16.3333 9.5V13.875H13.6666V9.5C13.6666 9.16848 13.5262 8.85054 13.2761 8.61612C13.0261 8.3817 12.6869 8.25 12.3333 8.25C11.9797 8.25 11.6406 8.3817 11.3905 8.61612C11.1405 8.85054 11 9.16848 11 9.5V13.875H8.33331V9.5C8.33331 8.50544 8.75474 7.55161 9.50489 6.84835C10.255 6.14509 11.2724 5.75 12.3333 5.75Z" fill="#ABABAB"/>
<path d="M5.66667 6.375H3V13.875H5.66667V6.375Z" fill="#ABABAB"/>
<path d="M4.33333 4.5C5.06971 4.5 5.66667 3.94036 5.66667 3.25C5.66667 2.55964 5.06971 2 4.33333 2C3.59695 2 3 2.55964 3 3.25C3 3.94036 3.59695 4.5 4.33333 4.5Z" fill="#ABABAB"/>
</svg>
